<svg id="Layer_1" enable-background="new 0 0 66 66" height="512" viewBox="0 0 66 66" width="512"
    xmlns="http://www.w3.org/2000/svg">
    <g>
        <circle cx="32.6" cy="33" fill="#5ac6f7" r="27"/>
        <path d="m40.21 58.91c-1.07.32-2.17.57-3.29.74-1.4.23-2.85.35-4.32.35-14.91 0-27-12.09-27-27 0-1.5.12-2.97.36-4.4.18-1.12.43-2.21.75-3.28 2.66 6.65 7.46 13.62 13.7 19.86 6.42 6.42 13.44 11.14 19.8 13.73z" fill="#5ac6f7"/>
        <path d="m32.6 5c-15.44 0-28 12.56-28 28s12.56 28 28 28 28-12.56 28-28-12.56-28-28-28zm25.97 27h-9.99c-.11-5.3-1.06-10.23-2.63-14.39 1.68-.91 3.26-2 4.74-3.25 4.65 4.51 7.62 10.73 7.88 17.64zm-24.97-24.93c3.97.52 7.48 4.13 9.86 9.53-3.08 1.42-6.42 2.22-9.86 2.35zm-2 0v11.88c-3.44-.13-6.78-.93-9.85-2.35 2.36-5.4 5.88-9 9.85-9.53zm0 13.91v11.02h-12.99c.1-4.99.96-9.63 2.38-13.52 3.31 1.51 6.91 2.37 10.61 2.5zm0 13.02v11.02c-3.7.13-7.29.99-10.61 2.5-1.42-3.89-2.28-8.53-2.38-13.52zm0 13.05v11.88c-3.97-.52-7.48-4.12-9.85-9.53 3.07-1.42 6.41-2.22 9.85-2.35zm2 11.88v-11.88c3.44.13 6.78.93 9.85 2.35-2.37 5.4-5.88 9-9.85 9.53zm0-13.91v-11.02h12.99c-.1 4.99-.96 9.63-2.38 13.52-3.32-1.51-6.91-2.36-10.61-2.5zm0-13.02v-11.02c3.7-.13 7.3-.99 10.61-2.5 1.42 3.89 2.28 8.53 2.38 13.52zm15.58-19.01c-1.25 1.04-2.59 1.96-4 2.74-1.44-3.2-3.26-5.84-5.35-7.7 3.46 1 6.64 2.71 9.35 4.96zm-29.16 2.74c-1.41-.78-2.75-1.7-4-2.74 2.71-2.25 5.88-3.95 9.35-4.96-2.09 1.86-3.91 4.5-5.35 7.7zm-5.51-1.38c1.47 1.25 3.06 2.34 4.74 3.25-1.57 4.16-2.52 9.09-2.63 14.39h-10c.27-6.9 3.24-13.12 7.89-17.64zm-7.89 19.65h9.99c.11 5.3 1.06 10.24 2.63 14.4-1.68.91-3.26 2-4.74 3.25-4.64-4.51-7.61-10.74-7.88-17.65zm9.4 19.01c1.25-1.04 2.59-1.96 4-2.74 1.44 3.2 3.26 5.84 5.35 7.69-3.46-.99-6.64-2.7-9.35-4.95zm29.16-2.74c1.41.78 2.75 1.7 4 2.74-2.71 2.25-5.89 3.95-9.35 4.96 2.08-1.86 3.91-4.5 5.35-7.7zm5.51 1.38c-1.48-1.25-3.06-2.34-4.74-3.25 1.57-4.16 2.52-9.09 2.63-14.39h9.99c-.26 6.9-3.23 13.12-7.88 17.64z" fill="#eee"/>
        <g>
            <path d="m59.41 6.18c-2.27-2.27-5.43-3.35-9.16-3.35-3.51 0-7.53.96-11.76 2.8 1.09.23 2.17.53 3.21.89 6.91-2.48 12.9-2.32 16.3 1.08s3.56 9.39 1.08 16.3c-2.43 6.75-7.38 14.36-14.3 21.28s-14.53 11.87-21.28 14.3c-6.91 2.48-12.9 2.32-16.3-1.08s-3.56-9.39-1.08-16.3c-.36-1.04-.66-2.12-.89-3.21-3.78 8.71-3.86 16.51.55 20.92 2.27 2.27 5.44 3.35 9.17 3.35 3.51 0 7.53-.96 11.76-2.79 6.34-2.74 13.16-7.44 19.49-13.77 6.33-6.34 11.03-13.16 13.77-19.51 3.77-8.7 3.85-16.5-.56-20.91z" fill="#4adec6"/>
        </g>
        <g>
            <circle cx="55.6" cy="33" fill="#395263" r="6"/>
            <circle cx="55.6" cy="33" fill="#ffd663" r="4"/>
        </g>
        <path d="m61.12 42.02c-.34-1-.75-2.02-1.18-3.04-.24 1.08-.54 2.15-.9 3.18.06.17.13.34.19.51 2.36 6.98 1.93 12.57-1.23 15.73-3.64 3.64-10.26 3.57-17.79.51-6.36-2.59-13.38-7.31-19.8-13.73-6.24-6.24-11.04-13.21-13.7-19.86-.27-.67-.52-1.33-.74-1.99-2.37-6.98-1.93-12.57 1.23-15.73 1.88-1.88 4.55-2.77 7.73-2.77 2.57 0 5.48.58 8.58 1.7 1.04-.36 2.11-.66 3.21-.89-8.72-3.78-16.52-3.87-20.94.54-3.72 3.73-4.33 10.05-1.71 17.79.52 1.53 1.15 3.07 1.89 4.63 2.89 6.11 7.4 12.36 13.04 18 5.81 5.81 12.04 10.25 17.92 13.05 4.8 2.3 9.38 3.51 13.33 3.51 3.72 0 6.89-1.08 9.16-3.35 3.73-3.72 4.34-10.04 1.71-17.79z" fill="#ffd663"/>
        <g>
            <circle cx="59.4" cy="59" fill="#395263" r="6"/>
            <circle cx="59.4" cy="59" fill="#ff735a" r="4"/>
        </g>
        <g>
            <circle cx="6.6" cy="7" fill="#395263" r="6"/>
            <circle cx="6.55" cy="7.2" fill="#ff735a" r="4"/>
        </g>
        <g>
            <circle cx="22.06" cy="48" fill="#395263" r="6"/>
            <circle cx="22.06" cy="48" fill="#ffd663" r="4"/>
        </g>
    </g>
</svg>