<svg id="Capa_1" enable-background="new 0 0 511.98 511.98" height="512" viewBox="0 0 511.98 511.98" width="512"
    xmlns="http://www.w3.org/2000/svg">
    <g>
        <path d="m483.24 77.21v164.4c0 40.69-18.65 87.92-52.5 132.99-39.45 52.51-97.56 98.86-168.05 134.04l-6.7 3.34-6.7-3.34c-70.49-35.18-128.6-81.53-168.05-134.04-33.85-45.07-52.5-92.3-52.5-132.99v-164.4l110.56-77.21h233.38z" fill="#00358f"/>
        <path d="m483.24 77.21v164.4c0 40.69-18.65 87.92-52.5 132.99-39.45 52.51-97.56 98.86-168.05 134.04l-6.7 3.34v-511.98h116.69z" fill="#012453"/>
        <path d="m353.8 60h-195.62l-69.44 48.49v133.12c0 45.75 45.01 135.15 167.25 202.78 122.24-67.63 167.25-157.03 167.25-202.78v-133.12z" fill="#00b3fe"/>
        <path d="m423.24 108.49v133.12c0 45.75-45.01 135.15-167.25 202.78v-384.39h97.81z" fill="#0274f9"/>
        <g>
            <path d="m297.79 133.61c-10.71-10.71-25.5-17.34-41.8-17.34-15.75 0-30.59 6.17-41.78 17.36s-17.36 26.03-17.36 41.78v40.59h118.28v-40.59c0-16.31-6.63-31.09-17.34-41.8zm-12.66 63.72h-58.28v-21.92c0-7.73 3.05-15.04 8.57-20.57 2.77-2.76 5.97-4.9 9.46-6.36 3.48-1.45 7.24-2.21 11.11-2.21 16.07 0 29.14 13.07 29.14 29.14z" fill="#ffb528"/>
        </g>
        <path d="m315.13 175.41v40.59h-59.14v-18.67h29.14v-21.92c0-16.07-13.07-29.14-29.14-29.14v-30c16.3 0 31.09 6.63 41.8 17.34s17.34 25.49 17.34 41.8z" fill="#fe8c01"/>
        <path d="m173.7 186h164.58v129.33h-164.58z" fill="#fee158"/>
        <path d="m255.99 186h82.29v129.33h-82.29z" fill="#ffb528"/>
        <path d="m358.52 45h-205.06l-79.72 55.67v140.94c0 29.26 14.82 66.44 40.65 102 31.45 43.3 77.9 82.69 134.34 113.91l7.26 4.02 7.26-4.02c56.44-31.22 102.89-70.61 134.34-113.91 25.83-35.56 40.65-72.74 40.65-102v-140.94zm49.72 196.61c0 39.91-40.71 121.4-152.25 185.56-111.54-64.16-152.25-145.65-152.25-185.56v-125.3l59.16-41.31h186.18l59.16 41.31z" fill="#eff5fa"/>
        <path d="m438.24 100.67v140.94c0 29.26-14.82 66.44-40.65 102-31.45 43.3-77.9 82.69-134.34 113.91l-7.26 4.02v-34.37c111.54-64.16 152.25-145.65 152.25-185.56v-125.3l-59.16-41.31h-93.09v-30h102.53z" fill="#c6e1ec"/>
        <path d="m240.99 235.16h30v31.01h-30z" fill="#ffb528"/>
        <path d="m255.99 235.16h15v31.01h-15z" fill="#fe8c01"/>
    </g>
</svg>