<svg id="Capa_1" enable-background="new 0 0 512 512" height="512" viewBox="0 0 512 512" width="512"
    xmlns="http://www.w3.org/2000/svg">
    <g>
        <path d="m501.698 52.092h-491.396c-5.69 0-10.302 4.613-10.302 10.302v49.372l2.337 1.03h160.917v-12.235c0-2.289 1.862-4.151 4.15-4.151h177.191c2.288 0 4.15 1.862 4.15 4.151v12.235h161.709l1.545-1.03v-49.372c.001-5.689-4.611-10.302-10.301-10.302z" fill="#fe646f"/>
        <g>
            <path d="m46.873 62.394c0-5.69 4.612-10.302 10.302-10.302h-46.873c-5.69 0-10.302 4.613-10.302 10.302v49.372l2.338 1.03h46.873l-2.338-1.03z" fill="#fd4755"/>
        </g>
        <g fill="#dff6fd">
            <path d="m163.254 111.766h-163.254v321.484c0 5.69 4.612 10.302 10.302 10.302h152.952z"/>
            <path d="m348.746 111.766v331.786h152.952c5.689 0 10.302-4.612 10.302-10.302v-321.484z"/>
        </g>
        <g>
            <path d="m46.873 433.25v-321.484h-46.873v321.484c0 5.69 4.612 10.302 10.302 10.302h46.873c-5.689 0-10.302-4.613-10.302-10.302z" fill="#c8effe"/>
        </g>
        <g>
            <path d="m348.746 111.766v331.786h152.952c5.689 0 10.302-4.612 10.302-10.302v-321.484z" fill="#dff6fd"/>
            <g>
                <path d="m349.746 111.766v331.786h54.085c-5.69 0-10.302-4.612-10.302-10.302v-321.484z" fill="#c8effe"/>
            </g>
            <g>
                <g>
                    <g>
                        <g>
                            <path d="m464.783 250.913h-76.233c-2.845 0-5.151-2.306-5.151-5.151v-76.233c0-2.845 2.306-5.151 5.151-5.151h76.233c2.845 0 5.151 2.306 5.151 5.151v76.233c0 2.845-2.306 5.151-5.151 5.151z" fill="#fe646f"/>
                        </g>
                        <g>
                            <path d="m414.648 245.762v-76.233c0-2.845 2.306-5.151 5.151-5.151h-31.249c-2.845 0-5.151 2.306-5.151 5.151v76.233c0 2.845 2.306 5.151 5.151 5.151h31.249c-2.845 0-5.151-2.307-5.151-5.151z" fill="#fd4755"/>
                        </g>
                        <g>
                            <path d="m394.032 250.913h65.27c-2.254-16.01-16.003-28.33-32.635-28.33s-30.381 12.319-32.635 28.33z" fill="#fff"/>
                        </g>
                        <g>
                            <path d="m464.783 258.413h-76.233c-6.976 0-12.65-5.676-12.65-12.651v-76.233c0-6.976 5.675-12.65 12.65-12.65h76.233c6.976 0 12.651 5.675 12.651 12.65v76.233c.001 6.975-5.675 12.651-12.651 12.651zm-73.884-15h71.535v-71.535h-71.535z" fill="#fb2b3a"/>
                        </g>
                        <g>
                            <circle cx="426.667" cy="205.07" fill="#e8edf2" r="21.119"/>
                        </g>
                        <g>
                            <path d="m421.859 205.07c0-8.772 5.35-16.292 12.963-19.483-2.51-1.052-5.264-1.636-8.156-1.636-11.664 0-21.119 9.455-21.119 21.119s9.455 21.119 21.119 21.119c2.891 0 5.646-.584 8.156-1.636-7.613-3.192-12.963-10.711-12.963-19.483z" fill="#d9e7ec"/>
                        </g>
                    </g>
                    <g>
                        <path d="m454.997 290.349h-56.66c-4.143 0-7.5-3.357-7.5-7.5s3.357-7.5 7.5-7.5h56.66c4.143 0 7.5 3.357 7.5 7.5s-3.357 7.5-7.5 7.5z" fill="#fe646f"/>
                    </g>
                </g>
            </g>
            <g>
                <g>
                    <path d="m474.57 344.948h-95.807c-4.143 0-7.5-3.357-7.5-7.5s3.357-7.5 7.5-7.5h95.807c4.143 0 7.5 3.357 7.5 7.5s-3.357 7.5-7.5 7.5z" fill="#fe646f"/>
                </g>
                <g>
                    <path d="m474.57 375.854h-95.807c-4.143 0-7.5-3.357-7.5-7.5s3.357-7.5 7.5-7.5h95.807c4.143 0 7.5 3.357 7.5 7.5s-3.357 7.5-7.5 7.5z" fill="#fe646f"/>
                </g>
                <g>
                    <path d="m474.57 406.759h-95.807c-4.143 0-7.5-3.357-7.5-7.5s3.357-7.5 7.5-7.5h95.807c4.143 0 7.5 3.357 7.5 7.5s-3.357 7.5-7.5 7.5z" fill="#fe646f"/>
                </g>
            </g>
        </g>
        <g>
            <g>
                <g>
                    <g>
                        <g>
                            <path d="m123.45 250.913h-76.233c-2.845 0-5.151-2.306-5.151-5.151v-76.233c0-2.845 2.306-5.151 5.151-5.151h76.233c2.845 0 5.151 2.306 5.151 5.151v76.233c0 2.845-2.306 5.151-5.151 5.151z" fill="#00c27a"/>
                        </g>
                        <g>
                            <path d="m73.658 245.762v-76.233c0-2.845 2.306-5.151 5.151-5.151h-31.592c-2.845 0-5.151 2.306-5.151 5.151v76.233c0 2.845 2.306 5.151 5.151 5.151h31.592c-2.845 0-5.151-2.307-5.151-5.151z" fill="#08b865"/>
                        </g>
                        <g>
                            <path d="m52.699 250.913h65.27c-2.254-16.01-16.003-28.33-32.635-28.33s-30.381 12.319-32.635 28.33z" fill="#fff"/>
                        </g>
                        <g>
                            <path d="m123.45 258.413h-76.233c-6.976 0-12.651-5.676-12.651-12.651v-76.233c0-6.976 5.676-12.65 12.651-12.65h76.233c6.976 0 12.65 5.675 12.65 12.65v76.233c.001 6.975-5.674 12.651-12.65 12.651zm-73.885-15h71.535v-71.535h-71.535z" fill="#09a755"/>
                        </g>
                        <g>
                            <circle cx="85.333" cy="205.07" fill="#e8edf2" r="21.119"/>
                        </g>
                        <g>
                            <path d="m81.899 205.07c0-8.502 5.035-15.811 12.276-19.16-2.693-1.245-5.681-1.959-8.842-1.959-11.664 0-21.119 9.455-21.119 21.119s9.455 21.119 21.119 21.119c3.161 0 6.15-.714 8.842-1.959-7.241-3.349-12.276-10.658-12.276-19.16z" fill="#d9e7ec"/>
                        </g>
                    </g>
                    <g>
                        <path d="m113.663 290.349h-56.66c-4.143 0-7.5-3.357-7.5-7.5s3.357-7.5 7.5-7.5h56.66c4.143 0 7.5 3.357 7.5 7.5s-3.357 7.5-7.5 7.5z" fill="#00c27a"/>
                    </g>
                </g>
            </g>
            <g>
                <g>
                    <path d="m133.236 344.948h-95.806c-4.143 0-7.5-3.357-7.5-7.5s3.357-7.5 7.5-7.5h95.807c4.143 0 7.5 3.357 7.5 7.5s-3.358 7.5-7.501 7.5z" fill="#00c27a"/>
                </g>
                <g>
                    <path d="m133.236 375.854h-95.806c-4.143 0-7.5-3.357-7.5-7.5s3.357-7.5 7.5-7.5h95.807c4.143 0 7.5 3.357 7.5 7.5s-3.358 7.5-7.501 7.5z" fill="#00c27a"/>
                </g>
                <g>
                    <path d="m133.236 406.759h-95.806c-4.143 0-7.5-3.357-7.5-7.5s3.357-7.5 7.5-7.5h95.807c4.143 0 7.5 3.357 7.5 7.5s-3.358 7.5-7.501 7.5z" fill="#00c27a"/>
                </g>
            </g>
        </g>
        <g>
            <g>
                <circle cx="30.66" cy="81.403" fill="#fff" r="7.5"/>
            </g>
            <g>
                <circle cx="56.66" cy="81.403" fill="#fed402" r="7.5"/>
            </g>
            <g>
                <circle cx="82.66" cy="81.403" fill="#00c27a" r="7.5"/>
            </g>
        </g>
        <g>
            <g>
                <path d="m167.404 459.908h177.191c2.845 0 5.151-2.306 5.151-5.151v-354.196c0-2.845-2.306-5.151-5.151-5.151h-177.191c-2.845 0-5.151 2.306-5.151 5.151v354.195c.001 2.845 2.307 5.152 5.151 5.152z" fill="#99e6fc"/>
            </g>
            <g>
                <path d="m208.612 454.757v-354.196c0-2.845 2.306-5.151 5.151-5.151h-46.358c-2.845 0-5.151 2.306-5.151 5.151v354.195c0 2.845 2.306 5.151 5.151 5.151h46.358c-2.845.001-5.151-2.306-5.151-5.15z" fill="#62dbfb"/>
            </g>
            <g>
                <g>
                    <g>
                        <path d="m297.875 248.276h-83.749c-3.125 0-5.659-2.534-5.659-5.659v-83.749c0-3.125 2.534-5.659 5.659-5.659h83.749c3.125 0 5.659 2.534 5.659 5.659v83.749c-.001 3.125-2.534 5.659-5.659 5.659z" fill="#08a9f1"/>
                    </g>
                    <g>
                        <path d="m240.257 242.617v-83.749c0-3.125 2.533-5.659 5.659-5.659h-31.79c-3.125 0-5.659 2.534-5.659 5.659v83.749c0 3.125 2.533 5.659 5.659 5.659h31.79c-3.126 0-5.659-2.534-5.659-5.659z" fill="#0290cf"/>
                    </g>
                    <g>
                        <path d="m220.148 248.276h71.705c-2.477-17.589-17.58-31.123-35.852-31.123s-33.377 13.534-35.853 31.123z" fill="#fff"/>
                    </g>
                    <g>
                        <circle cx="256" cy="197.913" fill="#e8edf2" r="23.201"/>
                    </g>
                    <g>
                        <path d="m252.909 197.913c0-9.211 5.368-17.168 13.146-20.915-3.042-1.465-6.453-2.286-10.055-2.286-12.814 0-23.201 10.387-23.201 23.201s10.387 23.201 23.201 23.201c3.602 0 7.013-.821 10.055-2.286-7.778-3.747-13.146-11.704-13.146-20.915z" fill="#d9e7ec"/>
                    </g>
                    <g>
                        <g>
                            <path d="m297.875 255.775h-83.75c-7.256 0-13.158-5.902-13.158-13.158v-83.75c0-7.256 5.902-13.158 13.158-13.158h83.75c7.256 0 13.158 5.902 13.158 13.158v83.75c0 7.256-5.902 13.158-13.158 13.158zm-81.908-15h80.066v-80.066h-80.066z" fill="#01c0fa"/>
                        </g>
                    </g>
                </g>
                <g>
                    <path d="m287.123 290.86h-62.246c-4.143 0-7.5-3.357-7.5-7.5s3.357-7.5 7.5-7.5h62.246c4.143 0 7.5 3.357 7.5 7.5s-3.357 7.5-7.5 7.5z" fill="#0290cf"/>
                </g>
            </g>
            <g>
                <g>
                    <path d="m308.626 350.843h-105.252c-4.143 0-7.5-3.357-7.5-7.5s3.357-7.5 7.5-7.5h105.252c4.143 0 7.5 3.357 7.5 7.5s-3.357 7.5-7.5 7.5z" fill="#0290cf"/>
                </g>
                <g>
                    <path d="m308.626 384.795h-105.252c-4.143 0-7.5-3.357-7.5-7.5s3.357-7.5 7.5-7.5h105.252c4.143 0 7.5 3.357 7.5 7.5s-3.357 7.5-7.5 7.5z" fill="#0290cf"/>
                </g>
                <g>
                    <path d="m308.626 418.748h-105.252c-4.143 0-7.5-3.357-7.5-7.5s3.357-7.5 7.5-7.5h105.252c4.143 0 7.5 3.357 7.5 7.5s-3.357 7.5-7.5 7.5z" fill="#0290cf"/>
                </g>
            </g>
        </g>
    </g>
</svg>