<svg id="Icons" height="512" viewBox="0 0 60 60" width="512"
    xmlns="http://www.w3.org/2000/svg">
    <path d="m47 32a1 1 0 0 1 -1-1 16 16 0 0 0 -32 0 1 1 0 0 1 -2 0 18 18 0 0 1 36 0 1 1 0 0 1 -1 1z" fill="#346d92"/>
    <path d="m39 44a1 1 0 0 1 -1-1v-4a1 1 0 0 1 2 0v4a1 1 0 0 1 -1 1z" fill="#1d4356"/>
    <path d="m41 40h-4a1 1 0 0 1 0-2h4a1 1 0 0 1 0 2z" fill="#295474"/>
    <path d="m13.74 14.74a22.966 22.966 0 0 0 -6.74 16.26v1a1 1 0 0 1 -1 1h-4a1 1 0 0 1 -1-1v-1a28.907 28.907 0 0 1 8.49-20.51z" fill="#ea4949"/>
    <path d="m30 2v6a22.966 22.966 0 0 0 -16.26 6.74l-4.25-4.25a28.907 28.907 0 0 1 20.51-8.49z" fill="#f86e50"/>
    <path d="m50.51 10.49-4.26 4.26a22.874 22.874 0 0 0 -16.25-6.75v-6a28.907 28.907 0 0 1 20.51 8.49z" fill="#fccb55"/>
    <path d="m50.51 10.49a28.907 28.907 0 0 1 8.49 20.51v1a1 1 0 0 1 -1 1h-4a1 1 0 0 1 -1-1v-1a22.549 22.549 0 0 0 -.61-5.23l-.73-2.49a22.918 22.918 0 0 0 -5.41-8.53z" fill="#37cba1"/>
    <path d="m31.129 34.837a107.271 107.271 0 0 0 22.377-9.709 1.031 1.031 0 0 0 -.566-1.928 107.384 107.384 0 0 0 -24.069 3.959z" fill="#295474"/>
    <circle cx="30" cy="31" fill="#346d92" r="4"/>
    <circle cx="39" cy="51" fill="#f0f2f5" r="8"/>
    <g fill="#1d4356">
        <path d="m40 53a1 1 0 0 1 -.707-.293l-1-1a1 1 0 0 1 -.188-1.154l1-2a1 1 0 0 1 1.79.894l-.678 1.353.49.49a1 1 0 0 1 -.707 1.71z"/>
        <path d="m39 46a1 1 0 0 1 -1-1v-2a1 1 0 0 1 2 0v2a1 1 0 0 1 -1 1z"/>
        <path d="m34.758 47.758a1 1 0 0 1 -.707-.293l-1.415-1.415a1 1 0 0 1 1.414-1.414l1.415 1.415a1 1 0 0 1 -.707 1.707z"/>
        <path d="m33 52h-2a1 1 0 0 1 0-2h2a1 1 0 0 1 0 2z"/>
        <path d="m33.343 57.657a1 1 0 0 1 -.707-1.707l1.415-1.415a1 1 0 0 1 1.414 1.414l-1.415 1.415a1 1 0 0 1 -.707.293z"/>
        <path d="m39 60a1 1 0 0 1 -1-1v-2a1 1 0 0 1 2 0v2a1 1 0 0 1 -1 1z"/>
        <path d="m44.657 57.657a1 1 0 0 1 -.707-.293l-1.415-1.415a1 1 0 0 1 1.414-1.414l1.415 1.415a1 1 0 0 1 -.707 1.707z"/>
        <path d="m47 52h-2a1 1 0 0 1 0-2h2a1 1 0 0 1 0 2z"/>
        <path d="m43.242 47.758a1 1 0 0 1 -.707-1.707l1.415-1.415a1 1 0 0 1 1.414 1.414l-1.415 1.415a1 1 0 0 1 -.707.293z"/>
    </g>
    <path d="m39 60a9 9 0 1 1 9-9 9.01 9.01 0 0 1 -9 9zm0-16a7 7 0 1 0 7 7 7.009 7.009 0 0 0 -7-7z" fill="#295474"/>
    <path d="m30 10a1 1 0 0 1 -1-1v-8a1 1 0 0 1 2 0v8a1 1 0 0 1 -1 1z" fill="#1d4356"/>
    <path d="m14.5 16.5a1 1 0 0 1 -.707-.293l-5.77-5.769a1 1 0 0 1 1.414-1.415l5.77 5.77a1 1 0 0 1 -.707 1.707z" fill="#1d4356"/>
    <path d="m45.5 16.5a1 1 0 0 1 -.707-1.707l5.769-5.77a1 1 0 0 1 1.415 1.415l-5.77 5.769a1 1 0 0 1 -.707.293z" fill="#1d4356"/>
    <path d="m28 44h-10a1 1 0 0 1 0-2h10a1 1 0 0 1 0 2z" fill="#ccd0da"/>
    <path d="m14 44h-1a1 1 0 0 1 0-2h1a1 1 0 0 1 0 2z" fill="#ccd0da"/>
    <path d="m26 49h-10a1 1 0 0 1 0-2h10a1 1 0 0 1 0 2z" fill="#ccd0da"/>
    <path d="m12 49h-1a1 1 0 0 1 0-2h1a1 1 0 0 1 0 2z" fill="#ccd0da"/>
    <path d="m28 59h-6a1 1 0 0 1 0-2h6a1 1 0 0 1 0 2z" fill="#ccd0da"/>
    <path d="m18 59h-1a1 1 0 0 1 0-2h1a1 1 0 0 1 0 2z" fill="#ccd0da"/>
    <path d="m26 54h-8a1 1 0 0 1 0-2h8a1 1 0 0 1 0 2z" fill="#ccd0da"/>
    <path d="m14 54h-1a1 1 0 0 1 0-2h1a1 1 0 0 1 0 2z" fill="#ccd0da"/>
</svg>